<svg width="32" height="32" viewBox="0 0 32 32" fill="none" xmlns="http://www.w3.org/2000/svg">
<path d="M0.0177154 26.3604C0.0275507 26.3074 0.0393536 26.2543 0.0590243 26.2052C0.0668932 26.1875 0.0649256 26.1698 0.0727939 26.1521C0.0944321 26.1069 0.125907 26.0695 0.155412 26.0322C0.167214 26.0164 0.175083 25.9988 0.188852 25.985C0.251799 25.9142 0.32458 25.8592 0.405232 25.8159C0.413101 25.812 0.417035 25.8041 0.424903 25.8002L2.86805 24.5795C3.17098 24.4282 3.42083 24.1785 3.57225 23.8758L4.79382 21.4344C4.81546 21.3892 4.84694 21.3519 4.87644 21.3145C4.88824 21.2988 4.89611 21.2811 4.90988 21.2673C4.97283 21.1966 5.04561 21.1415 5.12626 21.0983C5.13413 21.0944 5.13806 21.0865 5.14593 21.0826C5.1774 21.0668 5.20888 21.059 5.24035 21.0491C5.26002 21.0413 5.2797 21.0334 5.30133 21.0275C5.36821 21.0098 5.43313 21 5.49804 21H5.5C5.56492 21 5.6318 21.0098 5.69671 21.0275C5.71835 21.0334 5.73605 21.0432 5.75769 21.0491C5.78916 21.0609 5.82064 21.0668 5.85211 21.0826C5.85998 21.0865 5.86391 21.0944 5.87178 21.0983C5.95243 21.1415 6.02521 21.1966 6.08816 21.2673C6.10193 21.2831 6.1098 21.2988 6.1216 21.3145C6.15111 21.3538 6.18258 21.3892 6.20422 21.4344L7.42579 23.8758C7.57726 24.1785 7.82708 24.4282 8.12999 24.5795L10.5731 25.8002C10.581 25.8041 10.5849 25.812 10.5928 25.8159C10.6735 25.8592 10.7462 25.9142 10.8092 25.985C10.823 26.0007 10.8308 26.0164 10.8426 26.0322C10.8721 26.0715 10.9036 26.1069 10.9253 26.1521C10.9331 26.1698 10.9331 26.1875 10.939 26.2052C10.9607 26.2563 10.9705 26.3074 10.9803 26.3604C10.9902 26.4096 11 26.4548 11 26.5039C11 26.5531 10.9902 26.5983 10.9823 26.6474C10.9725 26.7005 10.9607 26.7536 10.941 26.8027C10.9331 26.8204 10.9351 26.8381 10.9272 26.8558C10.9134 26.8833 10.8879 26.901 10.8721 26.9266C10.8426 26.9718 10.8131 27.013 10.7738 27.0524C10.7344 27.0917 10.6931 27.1212 10.6479 27.1506C10.6223 27.1683 10.6046 27.1919 10.5751 27.2076L8.13196 28.4283C7.82903 28.5797 7.57918 28.8293 7.42776 29.132L6.20619 31.5734C6.19242 31.601 6.16684 31.6187 6.1511 31.6442C6.1216 31.6894 6.09209 31.7307 6.05275 31.77C6.01341 31.8093 5.97013 31.8388 5.92489 31.8703C5.89932 31.886 5.88161 31.9115 5.85408 31.9253C5.83834 31.9332 5.81867 31.9332 5.80293 31.9391C5.75179 31.9607 5.70065 31.9725 5.64557 31.9823C5.59835 31.9921 5.55114 32 5.50393 32C5.45672 32 5.40951 31.9902 5.3623 31.9823C5.30723 31.9725 5.25608 31.9607 5.20494 31.9391C5.18723 31.9312 5.16953 31.9332 5.15379 31.9253C5.12625 31.9115 5.10855 31.886 5.08298 31.8703C5.03774 31.8408 4.99446 31.8093 4.95512 31.772C4.91577 31.7327 4.88627 31.6914 4.85677 31.6462C4.83906 31.6206 4.81545 31.6029 4.80168 31.5754L3.58011 29.134C3.42865 28.8313 3.17882 28.5816 2.87591 28.4303L0.432764 27.2096C0.405225 27.1959 0.38752 27.1703 0.359982 27.1526C0.314738 27.1231 0.273427 27.0936 0.234088 27.0543C0.194748 27.015 0.165238 26.9737 0.135733 26.9285C0.118029 26.903 0.094423 26.8853 0.0806508 26.8578C0.0727824 26.8401 0.0727859 26.8224 0.066885 26.8047C0.0452468 26.7536 0.035408 26.7025 0.0255722 26.6494C0.00983546 26.5983 0 26.5531 0 26.5039C0 26.4548 0.00984698 26.4096 0.0177154 26.3604Z" fill="white"/>
<path d="M21.0177 5.36044C21.0276 5.30736 21.0394 5.25429 21.059 5.20515C21.0669 5.18746 21.0649 5.16977 21.0728 5.15208C21.0944 5.10686 21.1259 5.06952 21.1554 5.03217C21.1672 5.01644 21.1751 4.99875 21.1889 4.98499C21.2518 4.91423 21.3246 4.85919 21.4052 4.81594C21.4131 4.81201 21.417 4.80415 21.4249 4.80022L23.8681 3.57952C24.171 3.42816 24.4208 3.17851 24.5723 2.87582L25.7938 0.434417C25.8155 0.389206 25.8469 0.35186 25.8764 0.314512C25.8882 0.298786 25.8961 0.281095 25.9099 0.267335C25.9728 0.196573 26.0456 0.141531 26.1263 0.0982843C26.1341 0.0943532 26.1381 0.0864905 26.1459 0.0825588C26.1774 0.0668333 26.2089 0.058971 26.2404 0.0491422C26.26 0.0412794 26.2797 0.0334163 26.3013 0.0275196C26.3682 0.00982806 26.4331 0 26.498 0H26.5C26.5649 0 26.6318 0.00982806 26.6967 0.0275196C26.7184 0.0334163 26.7361 0.0432455 26.7577 0.0491422C26.7892 0.0609365 26.8206 0.0668333 26.8521 0.0825588C26.86 0.0864905 26.8639 0.0943532 26.8718 0.0982843C26.9524 0.14153 27.0252 0.196568 27.0882 0.267335C27.1019 0.283061 27.1098 0.298786 27.1216 0.314512C27.1511 0.353826 27.1826 0.389208 27.2042 0.434417L28.4258 2.87582C28.5773 3.17853 28.8271 3.4282 29.13 3.57952L31.5731 4.80022C31.581 4.80415 31.5849 4.81201 31.5928 4.81594C31.6735 4.85919 31.7462 4.91423 31.8092 4.98499C31.823 5.00072 31.8308 5.01644 31.8426 5.03217C31.8721 5.07148 31.9036 5.10687 31.9252 5.15208C31.9331 5.16977 31.9331 5.18746 31.939 5.20515C31.9607 5.25626 31.9705 5.30736 31.9803 5.36044C31.9902 5.40958 32 5.45479 32 5.50393C32 5.55308 31.9902 5.59829 31.9823 5.64743C31.9725 5.70051 31.9607 5.75358 31.941 5.80272C31.9331 5.82041 31.9351 5.8381 31.9272 5.85579C31.9134 5.88331 31.8879 5.901 31.8721 5.92656C31.8426 5.97177 31.8131 6.01305 31.7738 6.05236C31.7344 6.09167 31.6931 6.12116 31.6479 6.15064C31.6223 6.16833 31.6046 6.19192 31.5751 6.20765L29.132 7.42835C28.829 7.5797 28.5792 7.82935 28.4278 8.13204L27.2062 10.5734C27.1924 10.601 27.1668 10.6187 27.1511 10.6442C27.1216 10.6894 27.0921 10.7307 27.0527 10.77C27.0134 10.8093 26.9701 10.8388 26.9249 10.8703C26.8993 10.886 26.8816 10.9115 26.8541 10.9253C26.8383 10.9332 26.8187 10.9332 26.8029 10.9391C26.7518 10.9607 26.7006 10.9725 26.6456 10.9823C26.5984 10.9921 26.5511 11 26.5039 11C26.4567 11 26.4095 10.9902 26.3623 10.9823C26.3072 10.9725 26.2561 10.9607 26.2049 10.9391C26.1872 10.9312 26.1695 10.9332 26.1538 10.9253C26.1263 10.9115 26.1086 10.886 26.083 10.8703C26.0377 10.8408 25.9945 10.8093 25.9551 10.772C25.9158 10.7327 25.8863 10.6914 25.8568 10.6462C25.8391 10.6206 25.8155 10.6029 25.8017 10.5754L24.5801 8.13401C24.4286 7.8313 24.1788 7.58163 23.8759 7.43032L21.4328 6.20961C21.4052 6.19585 21.3875 6.1703 21.36 6.15261C21.3147 6.12313 21.2734 6.09364 21.2341 6.05433C21.1947 6.01502 21.1652 5.97373 21.1357 5.92852C21.118 5.90297 21.0944 5.88528 21.0807 5.85776C21.0728 5.84007 21.0728 5.82238 21.0669 5.80469C21.0452 5.75358 21.0354 5.70247 21.0256 5.6494C21.0098 5.59829 21 5.55308 21 5.50394C21 5.4548 21.0098 5.40958 21.0177 5.36044Z" fill="white"/>
<path d="M28.4746 16.1523C28.4668 16.1875 28.4707 16.2246 28.459 16.2598C28.455 16.2734 28.4453 16.2813 28.4394 16.2949C28.4277 16.3223 28.4101 16.3477 28.3964 16.373C28.3652 16.4297 28.328 16.4805 28.285 16.5273C28.2635 16.5488 28.244 16.5703 28.2186 16.5898C28.1619 16.6367 28.0994 16.6758 28.031 16.7051C28.0153 16.7109 28.0056 16.7246 27.9899 16.7305L25.2189 17.7383C21.7325 19.0039 19.0064 21.7305 17.7402 25.2128L16.7318 27.9824C16.7279 27.9961 16.7182 28.0039 16.7123 28.0176C16.7006 28.0449 16.683 28.0703 16.6693 28.0957C16.638 28.1523 16.6009 28.2031 16.5579 28.25C16.5364 28.2715 16.5169 28.293 16.4915 28.3125C16.4348 28.3594 16.3723 28.3984 16.3039 28.4277C16.2882 28.4336 16.2785 28.4473 16.2628 28.4531C16.257 28.4551 16.2531 28.4551 16.2472 28.4551C16.1671 28.4824 16.0831 28.5 15.9951 28.5C15.9091 28.5 15.8251 28.4824 15.743 28.4551C15.7372 28.4531 15.7332 28.4551 15.7274 28.4531C15.7117 28.4473 15.702 28.4355 15.6863 28.4277C15.6179 28.3984 15.5554 28.3613 15.4987 28.3125C15.4753 28.293 15.4538 28.2734 15.4323 28.25C15.3893 28.2051 15.3522 28.1523 15.3209 28.0957C15.3053 28.0684 15.2896 28.0449 15.2779 28.0176C15.2721 28.0059 15.2642 27.9961 15.2584 27.9824L14.25 25.2128C12.9837 21.7284 10.2556 19.0038 6.77137 17.7383L4.00028 16.7305C3.98464 16.7246 3.97487 16.7129 3.95924 16.7051C3.89084 16.6758 3.82831 16.6387 3.77164 16.5898C3.74818 16.5703 3.72669 16.5508 3.70519 16.5273C3.6622 16.4824 3.62507 16.4297 3.5938 16.373C3.57817 16.3457 3.56253 16.3223 3.55081 16.2949C3.54495 16.2832 3.53713 16.2734 3.53127 16.2598C3.51759 16.2246 3.52345 16.1895 3.51563 16.1523C3.51172 16.0996 3.5 16.0469 3.5 15.9922C3.5 15.9375 3.51172 15.8848 3.52345 15.832C3.53127 15.7969 3.52736 15.7598 3.53908 15.7246C3.54299 15.7129 3.55276 15.707 3.55667 15.6953C3.57817 15.6426 3.61139 15.5996 3.64461 15.5527C3.67002 15.5156 3.69151 15.4766 3.72278 15.4453C3.75795 15.4102 3.8029 15.3848 3.84394 15.3574C3.88693 15.3281 3.92602 15.2988 3.97292 15.2773C3.98464 15.2715 3.99246 15.2617 4.00419 15.2578L6.77527 14.25C10.2616 12.9844 12.9877 10.2578 14.2539 6.77544L15.2623 4.00586C15.2662 3.99415 15.276 3.98829 15.2799 3.97657C15.3014 3.92383 15.3346 3.88086 15.3659 3.83594C15.3932 3.79883 15.4147 3.75782 15.446 3.72461C15.4792 3.69141 15.5222 3.66797 15.5632 3.64062C15.6082 3.61133 15.6492 3.57812 15.6981 3.55859C15.7098 3.55469 15.7157 3.54492 15.7274 3.54101C15.7645 3.52734 15.8016 3.53125 15.8388 3.52344C15.8896 3.51367 15.9384 3.5 15.9912 3.5C16.0479 3.5 16.1006 3.51172 16.1554 3.52539C16.1905 3.5332 16.2257 3.5293 16.2589 3.54101C16.2707 3.54492 16.2765 3.55469 16.2882 3.55859C16.3391 3.58008 16.382 3.61328 16.4289 3.64453C16.468 3.67188 16.5091 3.69336 16.5423 3.72657C16.5755 3.75977 16.597 3.80079 16.6244 3.83985C16.6556 3.88477 16.6889 3.92969 16.7104 3.98047C16.7143 3.99219 16.724 3.99805 16.7279 4.00977L17.7363 6.77934C19.0026 10.2638 21.7307 12.9884 25.2149 14.2539L27.986 15.2617C27.9978 15.2656 28.0056 15.2754 28.0153 15.2793C28.0662 15.3008 28.1072 15.332 28.1521 15.3633C28.1912 15.3906 28.2342 15.4141 28.2674 15.4473C28.3007 15.4805 28.3222 15.5195 28.3476 15.5586C28.3788 15.6055 28.4121 15.6484 28.4336 15.6992C28.4375 15.7109 28.4472 15.7168 28.4511 15.7285C28.4648 15.7637 28.459 15.7988 28.4668 15.8359C28.4863 15.8848 28.5 15.9375 28.5 15.9922C28.5 16.0469 28.4863 16.0996 28.4746 16.1523Z" fill="white"/>
</svg>
